<svg width="24" height="24" viewBox="0 0 24 24" fill="none" xmlns="http://www.w3.org/2000/svg">
<mask id="mask0_1374_2953" style="mask-type:alpha" maskUnits="userSpaceOnUse" x="0" y="0" width="24" height="24">
<rect width="24" height="24" fill="#D9D9D9"/>
</mask>
<g mask="url(#mask0_1374_2953)">
<path d="M13.6531 6.00002C14.1987 6.00357 14.577 6.50213 14.4245 7.03877C13.9853 8.5842 13.538 10.1276 13.0937 11.672C12.4606 13.8729 11.8264 16.0732 11.1933 18.2741C11.0546 18.7559 10.7475 19.0174 10.339 18.9991C9.80827 18.9752 9.44027 18.4909 9.58409 17.9751C9.87071 16.945 10.1717 15.9189 10.4675 14.8918C11.2588 12.1442 12.0506 9.39601 12.8429 6.64835C12.9632 6.23001 13.2559 5.99748 13.6531 6.00002Z" fill="#3F51B5"/>
<path d="M19.0426 12.5259C18.1254 11.6177 17.245 10.7439 16.3616 9.87322C16.1692 9.68385 16.0601 9.46351 16.0857 9.19341C16.1175 8.86138 16.294 8.62428 16.6073 8.50345C16.9226 8.3816 17.2138 8.44608 17.459 8.67252C17.6877 8.88372 17.9037 9.10914 18.1254 9.32846C18.9791 10.1748 19.8333 11.0211 20.686 11.868C21.1032 12.2822 21.1052 12.7382 20.6917 13.1489C19.6312 14.2018 18.5691 15.2543 17.5076 16.3068C17.2542 16.5576 16.9553 16.6484 16.615 16.522C16.3007 16.4053 16.121 16.1697 16.0873 15.8371C16.0596 15.567 16.1645 15.3457 16.357 15.1553C17.1943 14.3283 18.0286 13.4982 18.865 12.6706C18.9136 12.6229 18.9719 12.5833 19.0426 12.5259Z" fill="#3F51B5"/>
<path d="M4.93619 12.5219C5.03036 12.5904 5.09332 12.6254 5.14246 12.6742C5.9839 13.5058 6.8233 14.3394 7.66321 15.1726C7.9007 15.4081 7.98208 15.6909 7.88279 16.0082C7.7881 16.3103 7.57108 16.4966 7.25733 16.5601C6.98043 16.6159 6.73373 16.5383 6.53617 16.3438C5.43625 15.2584 4.33735 14.1709 3.24459 13.0783C2.9201 12.7539 2.91805 12.2731 3.24101 11.9502C4.33377 10.8571 5.43113 9.76914 6.53258 8.6847C6.86425 8.35825 7.36482 8.36891 7.68522 8.68876C8.00255 9.00506 8.00818 9.50158 7.67857 9.8326C6.84838 10.6662 6.01 11.4923 5.17368 12.3198C5.11584 12.3777 5.04879 12.4269 4.93619 12.5219Z" fill="#3F51B5"/>
</g>
</svg>
