<svg width="24" height="24" viewBox="0 0 24 24" fill="none" xmlns="http://www.w3.org/2000/svg">
<mask id="mask0_1374_3011" style="mask-type:alpha" maskUnits="userSpaceOnUse" x="0" y="0" width="24" height="24">
<rect width="24" height="24" fill="#D9D9D9"/>
</mask>
<g mask="url(#mask0_1374_3011)">
<path d="M3.1877 21.4166C3.06373 21.3377 2.96229 21.2375 3.01364 21.0798C3.11006 20.7792 3.38306 20.9145 3.60597 20.8619C3.60597 20.7967 3.60597 20.7266 3.60597 20.6565C3.60597 19.2239 3.60597 17.7913 3.60597 16.3587C3.60597 15.8377 3.75624 15.6912 4.28219 15.69C4.77935 15.69 5.27776 15.69 5.77491 15.69C6.22698 15.69 6.39604 15.8565 6.39604 16.3036C6.39604 17.7487 6.39604 19.1926 6.39604 20.6377C6.39604 20.7091 6.39604 20.7792 6.39604 20.8644C6.63272 20.8644 6.85688 20.8644 7.10483 20.8644C7.10483 20.7967 7.10483 20.7279 7.10483 20.6577C7.10483 18.6253 7.10483 16.5929 7.10483 14.5604C7.10483 14.1033 7.27514 13.9343 7.73347 13.9343C8.25442 13.9343 8.77662 13.9343 9.29756 13.9343C9.71457 13.9343 9.89866 14.1171 9.89866 14.5391C9.89991 16.5653 9.89866 18.5915 9.89866 20.6177C9.89866 20.6953 9.89866 20.773 9.89866 20.8644C10.1316 20.8644 10.3557 20.8644 10.5987 20.8644C10.5987 20.7917 10.5987 20.7216 10.5987 20.6527C10.5987 17.4569 10.5987 14.2624 10.5987 11.0666C10.5987 10.5782 10.7652 10.4129 11.2586 10.4129C11.7746 10.4129 12.2893 10.4116 12.8052 10.4129C13.2084 10.4141 13.3975 10.6032 13.3975 11.009C13.3975 14.216 13.3975 17.4231 13.3975 20.6314C13.3975 20.7078 13.3975 20.7842 13.3975 20.8694C13.6342 20.8694 13.8521 20.8694 14.0975 20.8694C14.0975 20.7905 14.0975 20.7153 14.0975 20.6402C14.0975 18.038 14.0975 15.437 14.1 12.8348C14.1 12.7171 14.1063 12.5906 14.1476 12.4829C14.2541 12.2024 14.7788 12.0508 15.0142 12.2374C15.0831 12.2913 15.1344 12.4315 15.1144 12.5129C15.0944 12.5931 14.9842 12.667 14.8965 12.7095C14.8339 12.7396 14.745 12.7158 14.6523 12.7158C14.6523 15.442 14.6523 18.1532 14.6523 20.8719C15.2158 20.8719 15.7706 20.8719 16.3404 20.8719C16.3404 18.1582 16.3404 15.4483 16.3404 12.7146C16.2515 12.7146 16.1538 12.7421 16.0912 12.7083C16.0023 12.6595 15.8883 12.5718 15.8758 12.4879C15.8633 12.404 15.9446 12.2462 16.0185 12.2212C16.254 12.141 16.5044 12.1347 16.7173 12.3026C16.8551 12.4102 16.8951 12.563 16.8951 12.7346C16.8926 13.6099 16.8939 14.4853 16.8939 15.3606C16.8939 17.1226 16.8939 18.8858 16.8939 20.6477C16.8939 20.7179 16.8939 20.788 16.8939 20.8694C17.1356 20.8694 17.3597 20.8694 17.6039 20.8694C17.6039 20.7855 17.6039 20.7091 17.6039 20.6327C17.6039 16.2923 17.6039 11.9519 17.6039 7.61152C17.6039 7.55141 17.6027 7.49131 17.6039 7.4312C17.6114 7.1006 17.7955 6.90273 18.1299 6.89773C18.7047 6.89021 19.2807 6.89021 19.8568 6.89773C20.2124 6.90148 20.3927 7.10059 20.394 7.47502C20.3965 8.75736 20.3952 10.0409 20.3952 11.3233C20.3952 12.0609 20.3952 12.7985 20.3952 13.5348C20.3952 13.6012 20.3965 13.6675 20.3877 13.7327C20.3664 13.8792 20.2688 13.9556 20.1285 13.9581C19.997 13.9593 19.8981 13.8879 19.8718 13.7514C19.8568 13.6763 19.858 13.5962 19.8568 13.5185C19.8555 11.5762 19.8568 9.63395 19.8568 7.69167C19.8568 7.61403 19.8568 7.53764 19.8568 7.44747C19.2857 7.44747 18.731 7.44747 18.1612 7.44747C18.1612 11.9169 18.1612 16.385 18.1612 20.8656C18.7159 20.8656 19.2745 20.8656 19.8568 20.8656C19.8568 20.7867 19.8568 20.7103 19.8568 20.6352C19.8568 18.7944 19.8568 16.9548 19.858 15.1139C19.858 15.0363 19.8568 14.9561 19.8743 14.8822C19.9069 14.7483 20.002 14.6831 20.1385 14.6881C20.2763 14.6931 20.3627 14.767 20.3865 14.9023C20.399 14.9724 20.3952 15.045 20.3952 15.1177C20.3952 16.9585 20.3952 18.7981 20.3952 20.639C20.3952 20.7103 20.3952 20.7817 20.3952 20.8794C20.4829 20.8794 20.558 20.8832 20.6332 20.8781C20.7885 20.8694 20.9287 20.8994 20.9838 21.0635C21.0389 21.2275 20.9462 21.3365 20.8135 21.4179C14.9378 21.4166 9.06339 21.4166 3.1877 21.4166ZM12.8478 20.8719C12.8478 17.5559 12.8478 14.2586 12.8478 10.9626C12.2742 10.9626 11.7145 10.9626 11.1534 10.9626C11.1534 14.2724 11.1534 17.5696 11.1534 20.8719C11.7232 20.8719 12.2792 20.8719 12.8478 20.8719ZM7.65833 14.4815C7.65833 16.6204 7.65833 18.7443 7.65833 20.8706C8.22686 20.8706 8.78288 20.8706 9.34891 20.8706C9.34891 18.738 9.34891 16.6141 9.34891 14.4815C8.78288 14.4815 8.22686 14.4815 7.65833 14.4815ZM4.16072 16.2372C4.16072 17.7938 4.16072 19.3303 4.16072 20.8669C4.73051 20.8669 5.28527 20.8669 5.84629 20.8669C5.84629 19.3203 5.84629 17.7825 5.84629 16.2372C5.28026 16.2372 4.7255 16.2372 4.16072 16.2372Z" fill="#3F51B5"/>
<path d="M9.06847 10.1575C9.70838 9.51881 10.3395 8.88516 10.9757 8.25902C11.0696 8.16636 11.0095 8.09998 10.9782 8.02109C10.7453 7.43002 11.0521 6.76506 11.6494 6.56344C12.2442 6.36308 12.8842 6.69743 13.057 7.30354C13.0895 7.41749 13.1183 7.54522 13.097 7.65668C13.0645 7.82573 13.1384 7.88334 13.2711 7.94595C13.6981 8.15008 14.1176 8.36922 14.5422 8.57585C14.5898 8.59964 14.6812 8.60966 14.7112 8.58211C15.0456 8.27781 15.4263 8.18514 15.8696 8.31788C16.6385 7.16328 17.4049 6.01244 18.1763 4.85283C18.0122 4.63368 17.897 4.397 17.8958 4.11399C17.8958 3.47032 18.4267 2.9644 19.0704 3.00196C19.7041 3.03828 20.1699 3.61182 20.091 4.258C20.0159 4.87287 19.4023 5.30866 18.7786 5.18468C18.6935 5.1684 18.6296 5.14085 18.5645 5.23728C17.8206 6.36182 17.073 7.48261 16.3204 8.61467C16.3517 8.6585 16.383 8.69983 16.4118 8.7424C16.6873 9.15064 16.6623 9.66909 16.348 10.0636C16.0612 10.423 15.5528 10.5595 15.112 10.3942C14.6649 10.2263 14.3719 9.79557 14.4057 9.31469C14.4169 9.15315 14.3631 9.08678 14.2266 9.02166C13.7633 8.80126 13.3049 8.56583 12.8428 8.33416C12.8103 8.36296 12.7827 8.3855 12.7564 8.4093C12.3983 8.72111 11.9975 8.80126 11.5555 8.61467C11.4678 8.57835 11.4127 8.57209 11.3376 8.64723C10.7403 9.25333 10.1354 9.85317 9.53807 10.4593C9.5005 10.4968 9.47796 10.5883 9.49675 10.6358C9.70588 11.1768 9.57063 11.7053 9.13358 12.0146C8.69529 12.3252 8.14429 12.2738 7.70348 11.8794C7.68971 11.8681 7.67468 11.8581 7.64964 11.8405C7.15624 12.0872 6.65783 12.3327 6.16569 12.5906C6.12186 12.6132 6.09807 12.7171 6.10057 12.7822C6.12311 13.4447 5.63973 13.9694 4.99982 13.9694C4.51143 13.9694 4.07564 13.6438 3.94039 13.1755C3.80264 12.7021 3.98172 12.2125 4.38996 11.9482C4.81448 11.6727 5.35046 11.7078 5.72489 12.0346C5.7612 12.0659 5.79501 12.0998 5.84135 12.1423C6.34101 11.8919 6.84317 11.6402 7.34408 11.3847C7.37539 11.3684 7.40294 11.3133 7.40294 11.277C7.40294 10.2652 8.14178 9.76175 9.06847 10.1575ZM11.9925 7.04557C11.6882 7.05058 11.4315 7.3123 11.4353 7.61285C11.4378 7.91465 11.6995 8.17387 12 8.17512C12.3081 8.17512 12.5748 7.90338 12.5661 7.59782C12.5573 7.29226 12.2956 7.04181 11.9925 7.04557ZM8.50369 11.6752C8.8155 11.674 9.06095 11.4273 9.06095 11.1167C9.06095 10.8062 8.81425 10.5557 8.50619 10.5532C8.19187 10.5507 7.93265 10.8099 7.93641 11.123C7.94142 11.4285 8.19438 11.6752 8.50369 11.6752ZM5.56334 12.8586C5.55959 12.5506 5.30913 12.3051 4.99731 12.3076C4.68549 12.3089 4.4413 12.5543 4.4413 12.8674C4.4413 13.183 4.70052 13.4372 5.01485 13.4309C5.3204 13.4247 5.5671 13.1667 5.56334 12.8586ZM19.56 4.10397C19.56 3.79591 19.3108 3.54295 19.004 3.54044C18.691 3.53794 18.4342 3.79841 18.438 4.11273C18.4418 4.42079 18.6935 4.66624 19.004 4.66499C19.3146 4.66248 19.56 4.41578 19.56 4.10397ZM14.9404 9.36729C14.9429 9.67535 15.1946 9.92706 15.5014 9.9258C15.807 9.92455 16.0624 9.67034 16.0637 9.36604C16.0649 9.05547 15.7995 8.79124 15.4901 8.7975C15.1846 8.80251 14.9379 9.05923 14.9404 9.36729Z" fill="#3F51B5"/>
</g>
</svg>
