<svg width="24" height="24" viewBox="0 0 24 24" fill="none" xmlns="http://www.w3.org/2000/svg">
<mask id="mask0_1374_2976" style="mask-type:alpha" maskUnits="userSpaceOnUse" x="0" y="0" width="24" height="24">
<rect width="24" height="24" fill="#D9D9D9"/>
</mask>
<g mask="url(#mask0_1374_2976)">
<path d="M3.00468 12.3159C3.13695 11.9306 3.3769 11.6671 3.80648 11.6402C3.92002 11.6332 4.03589 11.6741 4.15177 11.68C4.20562 11.6835 4.28053 11.6753 4.31448 11.6402C5.1982 10.7596 6.07725 9.87549 6.96449 8.98319C6.59695 8.29815 6.6426 7.65176 7.22903 7.0967C7.57549 6.76882 8.22044 6.53462 8.98244 6.96906C9.01756 6.93745 9.05735 6.90349 9.09364 6.86836C9.92937 6.03109 10.7639 5.19266 11.6032 4.3589C11.6816 4.28045 11.7074 4.21838 11.6699 4.10362C11.5482 3.72539 11.7132 3.32022 12.0527 3.11881C12.3839 2.92208 12.8135 2.97361 13.0909 3.24411C13.3671 3.51227 13.4303 3.94085 13.2419 4.27927C13.0534 4.61886 12.6625 4.7992 12.2868 4.69029C12.1428 4.64814 12.0655 4.68678 11.9707 4.7828C11.5435 5.21725 11.1104 5.64466 10.6785 6.07442C10.6387 6.11423 10.6001 6.15639 10.5415 6.21845C13.4865 5.08375 16.2278 5.40929 18.8346 7.22317C18.9598 7.08851 19.0932 6.93628 19.2372 6.79341C19.4093 6.62011 19.5474 6.62128 19.7206 6.79224C20.1034 7.17165 20.4838 7.55222 20.863 7.93514C21.0421 8.11547 21.0398 8.2478 20.8572 8.43164C20.4815 8.80988 20.1046 9.18694 19.7265 9.56283C19.5474 9.74082 19.4116 9.73965 19.229 9.56049C18.8498 9.18577 18.4717 8.81105 18.0948 8.43399C17.9099 8.25014 17.9134 8.11079 18.1018 7.9246C18.1966 7.83092 18.2938 7.73841 18.3921 7.64356C15.9165 5.7278 12.1557 5.58143 9.46118 7.49367C9.73741 8.15529 9.67069 8.76304 9.1229 9.2654C8.69449 9.65768 8.17362 9.71038 7.49707 9.4633C5.746 11.8135 5.54116 15.6415 7.6469 18.4168C7.75224 18.2997 7.84822 18.1814 7.95591 18.076C8.10339 17.932 8.2579 17.932 8.40304 18.076C8.80101 18.473 9.19781 18.8723 9.58993 19.2739C9.71752 19.4051 9.72688 19.5585 9.60514 19.6803C9.16504 20.1241 8.71674 20.5609 8.27194 21C8.21342 21 8.15489 21 8.09637 21C8.04487 20.9614 7.98868 20.9286 7.94303 20.8841C7.55209 20.4965 7.16231 20.1077 6.77604 19.7166C6.61451 19.5538 6.61802 19.4121 6.7854 19.247C6.93055 19.1041 7.08389 18.9695 7.21966 18.843C5.4089 16.2364 5.08115 13.4939 6.19313 10.564C5.70737 11.0336 5.238 11.5161 4.76044 11.9891C4.66914 12.0805 4.65041 12.1531 4.68669 12.2772C4.81311 12.7187 4.56965 13.166 4.13539 13.3135C3.71167 13.4588 3.25283 13.2562 3.06906 12.8428C3.04799 12.796 3.02341 12.7515 3 12.707C3.00468 12.5735 3.00468 12.4447 3.00468 12.3159ZM9.05735 8.17402C9.05384 7.68455 8.6547 7.28992 8.17128 7.29694C7.69606 7.30514 7.30277 7.70211 7.30043 8.17754C7.29808 8.66233 7.69606 9.0593 8.18416 9.05813C8.6746 9.05696 9.05969 8.66702 9.05735 8.17402ZM8.19235 18.6849C7.92899 18.9484 7.65509 19.2224 7.39758 19.4789C7.65509 19.7388 7.92548 20.0105 8.18416 20.2716C8.44635 20.0093 8.71791 19.7377 8.98244 19.4742C8.71908 19.2119 8.44752 18.9402 8.19235 18.6849ZM18.6976 8.1588C18.968 8.4293 19.2384 8.6998 19.4807 8.94337C19.7382 8.68809 20.0086 8.41876 20.2544 8.1752C19.998 7.91875 19.7288 7.64824 19.469 7.38711C19.2161 7.64005 18.9493 7.90704 18.6976 8.1588ZM12.7913 3.86825C12.7936 3.70314 12.6566 3.56613 12.4928 3.56613C12.3336 3.56613 12.2048 3.6926 12.199 3.85186C12.192 4.02048 12.3195 4.15749 12.4858 4.16217C12.6508 4.16569 12.7889 4.03336 12.7913 3.86825ZM3.86617 12.1988C3.70113 12.1999 3.5911 12.3112 3.59227 12.4751C3.59344 12.6367 3.71869 12.7655 3.87905 12.7702C4.04292 12.7749 4.16933 12.6472 4.16348 12.4821C4.1588 12.3217 4.02887 12.1988 3.86617 12.1988Z" fill="#3F51B5"/>
<path d="M16.2511 20.9976C16.1821 20.9133 16.0966 20.8372 16.0475 20.7435C15.7771 20.2177 15.5137 19.6896 15.2551 19.1579C15.2 19.0455 15.1286 18.9753 15.0104 18.9308C14.081 18.5795 13.1552 18.2188 12.2258 17.8675C12.0725 17.809 11.9776 17.72 11.9144 17.5642C10.9745 15.2011 10.0299 12.8392 9.08299 10.4797C9.00691 10.2911 9.02798 10.1506 9.1778 10.0089C9.47043 9.73139 9.75369 9.44215 10.0358 9.15291C10.1528 9.0323 10.2769 9.00654 10.4326 9.0686C12.8204 10.0241 15.2082 10.9797 17.5984 11.9317C17.7447 11.9902 17.8138 12.0956 17.8664 12.2326C18.2176 13.1566 18.5746 14.077 18.9246 15.0021C18.9714 15.1262 19.0416 15.2035 19.161 15.2609C19.6971 15.522 20.2297 15.7901 20.7623 16.0583C21.0455 16.2 21.076 16.3827 20.8512 16.6063C19.4361 18.0232 18.0198 19.4402 16.6023 20.8547C16.5496 20.9074 16.4852 20.9508 16.4267 20.9976C16.3682 20.9976 16.3097 20.9976 16.2511 20.9976ZM9.78646 10.2115C9.68229 10.2747 9.62961 10.3403 9.6858 10.4797C10.5894 12.7245 11.486 14.9728 12.3897 17.2176C12.4178 17.2867 12.4938 17.3581 12.5641 17.3862C13.4291 17.7258 14.2976 18.056 15.1626 18.3945C15.2726 18.4378 15.337 18.4202 15.4201 18.3371C16.3893 17.3605 17.362 16.3874 18.3382 15.4178C18.4236 15.3323 18.4318 15.2655 18.3908 15.159C18.0619 14.3147 17.7342 13.4704 17.4158 12.6214C17.3631 12.4821 17.2847 12.4071 17.1489 12.3533C14.9332 11.4715 12.7197 10.5862 10.5075 9.69626C10.3635 9.63888 10.2781 9.65644 10.2195 9.77706C11.4263 10.9844 12.6284 12.187 13.8341 13.3931C14.7986 12.8053 15.7139 13.2479 16.106 13.7959C16.5742 14.4505 16.5157 15.3428 15.955 15.9236C15.399 16.4986 14.4942 16.5888 13.8341 16.1344C13.0931 15.625 12.9398 14.8042 13.3975 13.8229C12.1954 12.6202 10.9956 11.42 9.78646 10.2115ZM16.3998 20.1931C17.6686 18.9237 18.9281 17.6649 20.1887 16.4038C19.7509 16.1848 19.2933 15.9553 18.8508 15.7351C17.8056 16.7796 16.7708 17.8125 15.7291 18.8547C15.9538 19.3008 16.1833 19.7587 16.3998 20.1931ZM13.6784 14.7679C13.6772 15.3733 14.1677 15.8651 14.7693 15.8627C15.3616 15.8604 15.8532 15.3733 15.8602 14.7796C15.8672 14.1777 15.3756 13.6823 14.7728 13.6812C14.1618 13.68 13.6796 14.1589 13.6784 14.7679Z" fill="#3F51B5"/>
</g>
</svg>
